<svg height="512" viewBox="0 0 58 58" width="512" xmlns="http://www.w3.org/2000/svg"><g id="Page-1" fill="none" fill-rule="evenodd"><g id="005---Computer-API" fill-rule="nonzero"><path id="Shape" d="m50 23.65v22.35c0 1.6568542-1.3431458 3-3 3h-44c-1.65685425 0-3-1.3431458-3-3v-35c0-1.65685425 1.34314575-3 3-3h31.35z" fill="#547580"/><path id="Shape" d="m34 55-2-7h-14l-2 7z" fill="#7f8c8d"/><g fill="#65ddb9"><path id="Shape" d="m9 15c-2.209139 0-4 1.790861-4 4v9c0 .5522847.44771525 1 1 1s1-.4477153 1-1v-4h4v4c0 .5522847.4477153 1 1 1s1-.4477153 1-1v-9c0-2.209139-1.790861-4-4-4zm-2 7v-3c0-1.1045695.8954305-2 2-2s2 .8954305 2 2v3z"/><path id="Shape" d="m18 15h-2c-.5522847 0-1 .4477153-1 1v12c0 .5522847.4477153 1 1 1s1-.4477153 1-1v-5h1c2.209139 0 4-1.790861 4-4s-1.790861-4-4-4zm0 6h-1v-4h1c1.1045695 0 2 .8954305 2 2s-.8954305 2-2 2z"/><path id="Shape" d="m25 15c-.5522847 0-1 .4477153-1 1v12c0 .5522847.4477153 1 1 1s1-.4477153 1-1v-12c0-.5522847-.4477153-1-1-1z"/></g><path id="Shape" d="m25 33h-19c-.55228475 0-1-.4477153-1-1s.44771525-1 1-1h19c.5522847 0 1 .4477153 1 1s-.4477153 1-1 1z" fill="#84b5cb"/><path id="Shape" d="m25 37h-19c-.55228475 0-1-.4477153-1-1s.44771525-1 1-1h19c.5522847 0 1 .4477153 1 1s-.4477153 1-1 1z" fill="#84b5cb"/><path id="Shape" d="m50 44v2c0 1.6568542-1.3431458 3-3 3h-44c-1.65685425 0-3-1.3431458-3-3v-2z" fill="#95a5a5"/><rect id="Rectangle-path" fill="#95a5a5" height="4" rx="2" width="28" x="11" y="54"/><path id="Shape" d="m58 14c-.0009272.438574-.024291.8768134-.07 1.313-.0519768.3805182-.3467865.6822312-.726.743l-2.083.341c-.2922522 1.3380514-.8226898 2.6126597-1.566 3.763l1.234 1.724c.2288448.3103868.2251771.7346163-.009 1.041-.2782187.3382673-.5732573.6623425-.884.971-.315.315-.638.6-.971.884-.3063837.2341771-.7306132.2378448-1.041.009l-1.724-1.234c-1.1494271.7429806-2.4229914 1.2734066-3.76 1.566l-.344 2.079c-.0577669.3811357-.3615641.677583-.744.726-.8725112.093331-1.7524888.093331-2.625 0-.3820481-.0488309-.6853409-.3451843-.743-.726l-.344-2.079c-1.3380514-.2922522-2.6126597-.8226898-3.763-1.566l-1.724 1.234c-.3103868.2288448-.7346163.2251771-1.041-.009-.333-.28-.656-.569-.971-.884-.3107427-.3086575-.6057813-.6327327-.884-.971-.2341771-.3063837-.2378448-.7306132-.009-1.041l1.234-1.724c-.7419264-1.1496395-1.2713313-2.4231922-1.563-3.76l-2.079-.344c-.3792135-.0607688-.6740232-.3624818-.726-.743-.093331-.8725112-.093331-1.7524888 0-2.625.048417-.3824359.3448643-.6862331.726-.744l2.083-.341c.2910192-1.3377836.8200955-2.61237642 1.562-3.763l-1.234-1.724c-.2288448-.31038675-.2251771-.73461632.009-1.041.2742555-.34172395.5680813-.66726953.88-.975.3084244-.310986.6325122-.60603607.971-.884.3063837-.23417711.7306132-.2378448 1.041-.009l1.728 1.238c1.1494271-.74298062 2.4229914-1.27340658 3.76-1.566l.344-2.079c.0576591-.38081572.3609519-.67716914.743-.726.8725112-.09333096 1.7524888-.09333096 2.625 0 .3824359.04841703.6862331.34486432.744.726l.344 2.079c1.3370086.29259342 2.6105729.82301938 3.76 1.566l1.724-1.234c.3103868-.2288448.7346163-.22517711 1.041.009.3397553.27655986.6651783.57027502.975.88.3131698.30632472.608331.63053451.884.971.2341771.30638368.2378448.73061325.009 1.041l-1.238 1.728c.7429806 1.14942714 1.2734066 2.4229914 1.566 3.76l2.083.341c.3811357.0577669.677583.3615641.726.744.0458384.4368453.0692025.8757571.07 1.315z" fill="#d1d4d1"/><circle id="Oval" cx="44" cy="14" fill="#a5a5a4" r="7"/></g></g></svg>