<svg height="512" viewBox="0 0 58 58" width="512" xmlns="http://www.w3.org/2000/svg"><g id="Page-1" fill="none" fill-rule="evenodd"><g id="024---Cloud-Coding" fill-rule="nonzero" transform="translate(-1)"><path id="Shape" d="m50 34.62c5.5044012-1.4240827 9.253899-6.5155253 8.9804719-12.1945817-.2734271-5.6790565-4.4947188-10.3867328-10.1104719-11.2754183-.7961413-5.52187955-5.0267835-9.92011168-10.5135851-10.93006361s-11.006255 1.5935866-13.7164149 6.47006361c-1.1585638-.45886882-2.3938774-.69303542-3.64-.69-5.1345804.00271982-9.4337716 3.89143546-9.95 9h-.05c-5.32874247-.0006669-9.72194249 4.1773146-9.98871245 9.4993753-.26676996 5.3220608 3.6866136 9.9184174 8.98871245 10.4506247z" fill="#b0d3f0"/><rect id="Rectangle-path" fill="#547580" height="36" rx="3" width="40" x="10" y="22"/><path id="Shape" d="m50 25v5h-40v-5c0-1.6568542 1.3431458-3 3-3h34c1.6568542 0 3 1.3431458 3 3z" fill="#4482c3"/><path id="Shape" d="m46 27h-8c-.5522847 0-1-.4477153-1-1s.4477153-1 1-1h8c.5522847 0 1 .4477153 1 1s-.4477153 1-1 1z" fill="#fff"/><circle id="Oval" cx="14" cy="26" fill="#f3d55b" r="1"/><circle id="Oval" cx="18" cy="26" fill="#ff5364" r="1"/><circle id="Oval" cx="22" cy="26" fill="#65ddb9" r="1"/><path id="Shape" d="m17 35h-2c-.5522847 0-1-.4477153-1-1s.4477153-1 1-1h2c.5522847 0 1 .4477153 1 1s-.4477153 1-1 1z" fill="#fb7b76"/><path id="Shape" d="m32 35h-11c-.5522847 0-1-.4477153-1-1s.4477153-1 1-1h11c.5522847 0 1 .4477153 1 1s-.4477153 1-1 1z" fill="#d1d4d1"/><path id="Shape" d="m17 39h-2c-.5522847 0-1-.4477153-1-1s.4477153-1 1-1h2c.5522847 0 1 .4477153 1 1s-.4477153 1-1 1z" fill="#fb7b76"/><path id="Shape" d="m37 39h-16c-.5522847 0-1-.4477153-1-1s.4477153-1 1-1h16c.5522847 0 1 .4477153 1 1s-.4477153 1-1 1z" fill="#d1d4d1"/><path id="Shape" d="m17 43h-2c-.5522847 0-1-.4477153-1-1s.4477153-1 1-1h2c.5522847 0 1 .4477153 1 1s-.4477153 1-1 1z" fill="#fb7b76"/><path id="Shape" d="m27 43h-6c-.5522847 0-1-.4477153-1-1s.4477153-1 1-1h6c.5522847 0 1 .4477153 1 1s-.4477153 1-1 1z" fill="#f0c419"/><path id="Shape" d="m17 47h-2c-.5522847 0-1-.4477153-1-1s.4477153-1 1-1h2c.5522847 0 1 .4477153 1 1s-.4477153 1-1 1z" fill="#fb7b76"/><path id="Shape" d="m32 47h-11c-.5522847 0-1-.4477153-1-1s.4477153-1 1-1h11c.5522847 0 1 .4477153 1 1s-.4477153 1-1 1z" fill="#d1d4d1"/><path id="Shape" d="m17 51h-2c-.5522847 0-1-.4477153-1-1s.4477153-1 1-1h2c.5522847 0 1 .4477153 1 1s-.4477153 1-1 1z" fill="#fb7b76"/><path id="Shape" d="m37 51h-16c-.5522847 0-1-.4477153-1-1s.4477153-1 1-1h16c.5522847 0 1 .4477153 1 1s-.4477153 1-1 1z" fill="#f0c419"/><path id="Shape" d="m17 55h-2c-.5522847 0-1-.4477153-1-1s.4477153-1 1-1h2c.5522847 0 1 .4477153 1 1s-.4477153 1-1 1z" fill="#fb7b76"/><path id="Shape" d="m45 55h-24c-.5522847 0-1-.4477153-1-1s.4477153-1 1-1h24c.5522847 0 1 .4477153 1 1s-.4477153 1-1 1z" fill="#d1d4d1"/><path id="Shape" d="m44 39h-3c-.5522847 0-1-.4477153-1-1s.4477153-1 1-1h3c.5522847 0 1 .4477153 1 1s-.4477153 1-1 1z" fill="#f0c419"/><path id="Shape" d="m46 47h-10c-.5522847 0-1-.4477153-1-1s.4477153-1 1-1h10c.5522847 0 1 .4477153 1 1s-.4477153 1-1 1z" fill="#d1d4d1"/></g></g></svg>