<svg height="512" viewBox="0 0 58 58" width="512" xmlns="http://www.w3.org/2000/svg"><g id="Page-1" fill="none" fill-rule="evenodd"><g id="029---Code-Warning" fill-rule="nonzero"><path id="Shape" d="m26 52h-21c-1.32608245 0-2.59785201-.5267842-3.53553391-1.4644661-.93768189-.9376819-1.46446609-2.2094515-1.46446609-3.5355339v-42c0-2.76142375 2.23857625-5 5-5h40c1.3260824 0 2.597852.5267842 3.5355339 1.46446609.9376819.9376819 1.4644661 2.20945146 1.4644661 3.53553391v36.6z" fill="#547580"/><path id="Shape" d="m50 5v7h-50v-7c0-2.76142375 2.23857625-5 5-5h40c1.3260824 0 2.597852.5267842 3.5355339 1.46446609.9376819.9376819 1.4644661 2.20945146 1.4644661 3.53553391z" fill="#4482c3"/><circle id="Oval" cx="6" cy="6" fill="#f3d55b" r="2"/><circle id="Oval" cx="14" cy="6" fill="#ff5364" r="2"/><circle id="Oval" cx="22" cy="6" fill="#65ddb9" r="2"/><path id="Shape" d="m44 8c1.1045695 0 2-.8954305 2-2s-.8954305-2-2-2h-8c-1.1045695 0-2 .8954305-2 2s.8954305 2 2 2z" fill="#fff"/><path id="Shape" d="m10 49c-.55228475 0-1-.4477153-1-1v-32c0-.5522847.44771525-1 1-1 .5522847 0 1 .4477153 1 1v32c0 .5522847-.4477153 1-1 1z" fill="#9fc9d3"/><path id="Shape" d="m6 18h-2c-.55228475 0-1-.4477153-1-1s.44771525-1 1-1h2c.55228475 0 1 .4477153 1 1s-.44771525 1-1 1z" fill="#fb7b76"/><path id="Shape" d="m25 18h-11c-.5522847 0-1-.4477153-1-1s.4477153-1 1-1h11c.5522847 0 1 .4477153 1 1s-.4477153 1-1 1z" fill="#9fc9d3"/><path id="Shape" d="m6 23h-2c-.55228475 0-1-.4477153-1-1s.44771525-1 1-1h2c.55228475 0 1 .4477153 1 1s-.44771525 1-1 1z" fill="#fb7b76"/><path id="Shape" d="m30 23h-16c-.5522847 0-1-.4477153-1-1s.4477153-1 1-1h16c.5522847 0 1 .4477153 1 1s-.4477153 1-1 1z" fill="#f0c419"/><path id="Shape" d="m6 28h-2c-.55228475 0-1-.4477153-1-1s.44771525-1 1-1h2c.55228475 0 1 .4477153 1 1s-.44771525 1-1 1z" fill="#fb7b76"/><path id="Shape" d="m20 28h-6c-.5522847 0-1-.4477153-1-1s.4477153-1 1-1h6c.5522847 0 1 .4477153 1 1s-.4477153 1-1 1z" fill="#9fc9d3"/><path id="Shape" d="m6 33h-2c-.55228475 0-1-.4477153-1-1s.44771525-1 1-1h2c.55228475 0 1 .4477153 1 1s-.44771525 1-1 1z" fill="#fb7b76"/><path id="Shape" d="m25 33h-11c-.5522847 0-1-.4477153-1-1s.4477153-1 1-1h11c.5522847 0 1 .4477153 1 1s-.4477153 1-1 1z" fill="#f0c419"/><path id="Shape" d="m6 38h-2c-.55228475 0-1-.4477153-1-1s.44771525-1 1-1h2c.55228475 0 1 .4477153 1 1s-.44771525 1-1 1z" fill="#fb7b76"/><path id="Shape" d="m30 38h-16c-.5522847 0-1-.4477153-1-1s.4477153-1 1-1h16c.5522847 0 1 .4477153 1 1s-.4477153 1-1 1z" fill="#f0c419"/><path id="Shape" d="m6 43h-2c-.55228475 0-1-.4477153-1-1s.44771525-1 1-1h2c.55228475 0 1 .4477153 1 1s-.44771525 1-1 1z" fill="#fb7b76"/><path id="Shape" d="m31.77 43h-17.77c-.5522847 0-1-.4477153-1-1s.4477153-1 1-1h17.77c.5522847 0 1 .4477153 1 1s-.4477153 1-1 1z" fill="#9fc9d3"/><path id="Shape" d="m6 48h-2c-.55228475 0-1-.4477153-1-1s.44771525-1 1-1h2c.55228475 0 1 .4477153 1 1s-.44771525 1-1 1z" fill="#fb7b76"/><path id="Shape" d="m20 48h-6c-.5522847 0-1-.4477153-1-1s.4477153-1 1-1h6c.5522847 0 1 .4477153 1 1s-.4477153 1-1 1z" fill="#f0c419"/><g fill="#9fc9d3"><path id="Shape" d="m37 23h-3c-.5522847 0-1-.4477153-1-1s.4477153-1 1-1h3c.5522847 0 1 .4477153 1 1s-.4477153 1-1 1z"/><path id="Shape" d="m37.54 33h-8.54c-.5522847 0-1-.4477153-1-1s.4477153-1 1-1h8.54c.5522847 0 1 .4477153 1 1s-.4477153 1-1 1z"/><path id="Shape" d="m28.89 48h-4.89c-.5522847 0-1-.4477153-1-1s.4477153-1 1-1h4.89c.5522847 0 1 .4477153 1 1s-.4477153 1-1 1z"/></g><path id="Shape" d="m56 58h-30c-.7145221-.0000182-1.3747595-.3812232-1.7320127-1.000022s-.3572484-1.3811837.0000127-1.999978l15-26c.3572789-.6187526 1.0175051-.999912 1.732-.999912s1.3747211.3811594 1.732.999912l15 26c.3572611.6187943.3572659 1.3811792.0000127 1.999978s-1.0174906 1.0000038-1.7320127 1.000022z" fill="#f0c419"/><path id="Shape" d="m41 50c-.5522847 0-1-.4477153-1-1v-13c0-.5522847.4477153-1 1-1s1 .4477153 1 1v13c0 .5522847-.4477153 1-1 1z" fill="#d25627"/><circle id="Oval" cx="41" cy="53" fill="#d25627" r="1"/></g></g></svg>