<svg height="512" viewBox="0 0 36 58" width="512" xmlns="http://www.w3.org/2000/svg"><g id="Page-1" fill="none" fill-rule="evenodd"><g id="041---Robot-TXT" fill-rule="nonzero"><rect id="Rectangle-path" fill="#d1d4d1" height="27" rx="4" width="36" y="31"/><rect id="Rectangle-path" fill="#81ccb8" height="28" rx="1" transform="matrix(0 1 -1 0 62.5 26.5)" width="19" x="8.5" y="30.5"/><path id="Rectangle-path" d="m12 25h12v7h-12z" fill="#95a5a5"/><path id="Shape" d="m32 7c2.209139 0 4 1.790861 4 4v8c0 2.209139-1.790861 4-4 4h-28c-2.209139 0-4-1.790861-4-4v-8c0-2.209139 1.790861-4 4-4z" fill="#95a5a5"/><path id="Shape" d="m20-4v12c-2.209139 0-4-1.790861-4-4v-4c0-2.209139 1.790861-4 4-4z" fill="#95a5a5" transform="matrix(0 1 -1 0 20 -16)"/><rect id="Rectangle-path" fill="#d1d4d1" height="22" rx="3" width="28" x="4" y="4"/><rect id="Rectangle-path" fill="#81ccb8" height="20" rx="2" transform="matrix(0 1 -1 0 33 -3)" width="14" x="11" y="5"/><g fill="#33907c"><path id="Shape" d="m12 14c-.5522847 0-1-.4477153-1-1v-1c0-.5522847.4477153-1 1-1s1 .4477153 1 1v1c0 .5522847-.4477153 1-1 1z"/><path id="Shape" d="m24 14c-.5522847 0-1-.4477153-1-1v-1c0-.5522847.4477153-1 1-1s1 .4477153 1 1v1c0 .5522847-.4477153 1-1 1z"/><path id="Shape" d="m18 19c-1.745529.0257911-3.3212994-1.0414987-3.945-2.672-.1746281-.5182102.0993855-1.0805879.6151082-1.2624307.5157227-.1818429 1.0818696.0842959 1.2708918.5974307.3615133.8138426 1.1684768 1.338381 2.059 1.338381s1.6974867-.5245384 2.059-1.338381c.1909927-.5151457.7596517-.7821217 1.278-.6.5131914.184739.7836867.7466395.608 1.263-.6230445 1.631289-2.1989648 2.6994793-3.945 2.674z"/><path id="Shape" d="m24 40h1v5c0 .5522847.4477153 1 1 1s1-.4477153 1-1v-5h1c.5522847 0 1-.4477153 1-1s-.4477153-1-1-1h-4c-.5522847 0-1 .4477153-1 1s.4477153 1 1 1z"/><path id="Shape" d="m8 40h1v5c0 .5522847.44771525 1 1 1 .5522847 0 1-.4477153 1-1v-5h1c.5522847 0 1-.4477153 1-1s-.4477153-1-1-1h-4c-.55228475 0-1 .4477153-1 1s.44771525 1 1 1z"/><path id="Shape" d="m28 48h-20c-.55228475 0-1 .4477153-1 1s.44771525 1 1 1h20c.5522847 0 1-.4477153 1-1s-.4477153-1-1-1z"/><path id="Shape" d="m15.445 45.832c.2206502.1472282.4907558.2007572.7508787.1488077.2601229-.0519496.488948-.2051208.6361213-.4258077l1.168-1.755 1.168 1.752c.1982824.297245.5400812.4661283.8966441.4430332s.6737195-.2346599.832-.555.1336383-.7007882-.0646441-.9980332l-1.632-2.442 1.63-2.445c.306518-.4595009.1825009-1.0804819-.277-1.387-.4595009-.306518-1.080482-.1825009-1.387.277l-1.166 1.755-1.168-1.752c-.306518-.4595009-.9274991-.583518-1.387-.277-.4595009.3065181-.583518.9274991-.277 1.387l1.632 2.442-1.63 2.445c-.3069815.4589663-.1838733 1.0798794.275 1.387z"/></g></g></g></svg>