<svg id="adf8006d-7a23-4b50-984a-10e737c62a96" height="512" viewBox="0 0 60 60" width="512" xmlns="http://www.w3.org/2000/svg" data-name="Icons"><path d="m59 39v4a2.006 2.006 0 0 1 -2 2h-22a2.006 2.006 0 0 1 -2-2v-4a2.006 2.006 0 0 0 2 2h22a2.006 2.006 0 0 0 2-2z" fill="#3f5c6c"/><rect fill="#b0d3f0" height="40" rx="2" width="26" x="33" y="1"/><path d="m53 1-2.4 3.2a2 2 0 0 1 -1.6.8h-6a2 2 0 0 1 -1.6-.8l-2.4-3.2z" fill="#3f5c6c"/><path d="m39 12h-2a1 1 0 0 1 0-2h2a1 1 0 0 1 0 2z" fill="#fb7b76"/><path d="m55 12h-12a1 1 0 0 1 0-2h12a1 1 0 0 1 0 2z" fill="#90bae1"/><path d="m39 16h-2a1 1 0 0 1 0-2h2a1 1 0 0 1 0 2z" fill="#fb7b76"/><path d="m47 16h-4a1 1 0 0 1 0-2h4a1 1 0 0 1 0 2z" fill="#90bae1"/><path d="m39 20h-2a1 1 0 0 1 0-2h2a1 1 0 0 1 0 2z" fill="#fb7b76"/><path d="m49 20h-6a1 1 0 0 1 0-2h6a1 1 0 0 1 0 2z" fill="#90bae1"/><path d="m39 24h-2a1 1 0 0 1 0-2h2a1 1 0 0 1 0 2z" fill="#fb7b76"/><path d="m51 24h-8a1 1 0 0 1 0-2h8a1 1 0 0 1 0 2z" fill="#90bae1"/><path d="m39 28h-2a1 1 0 0 1 0-2h2a1 1 0 0 1 0 2z" fill="#fb7b76"/><path d="m45 28h-2a1 1 0 0 1 0-2h2a1 1 0 0 1 0 2z" fill="#90bae1"/><path d="m39 32h-2a1 1 0 0 1 0-2h2a1 1 0 0 1 0 2z" fill="#fb7b76"/><path d="m53 32h-10a1 1 0 0 1 0-2h10a1 1 0 0 1 0 2z" fill="#90bae1"/><path d="m39 36h-2a1 1 0 0 1 0-2h2a1 1 0 0 1 0 2z" fill="#fb7b76"/><g fill="#90bae1"><path d="m49 36h-6a1 1 0 0 1 0-2h6a1 1 0 0 1 0 2z"/><path d="m55 20h-2a1 1 0 0 1 0-2h2a1 1 0 0 1 0 2z"/><path d="m55 28h-6a1 1 0 0 1 0-2h6a1 1 0 0 1 0 2z"/></g><path d="m27 53v4a2.006 2.006 0 0 1 -2 2h-22a2.006 2.006 0 0 1 -2-2v-4a2.006 2.006 0 0 0 2 2h22a2.006 2.006 0 0 0 2-2z" fill="#3f5c6c"/><rect fill="#b0d3f0" height="40" rx="2" width="26" x="1" y="15"/><path d="m21 15-2.4 3.2a2 2 0 0 1 -1.6.8h-6a2 2 0 0 1 -1.6-.8l-2.4-3.2z" fill="#3f5c6c"/><path d="m26.618 6.8-5.09 4a.956.956 0 0 1 -1.528-.8v-1h-17a2.006 2.006 0 0 1 -2-2v-2a2.006 2.006 0 0 1 2-2h17v-1a.956.956 0 0 1 1.53-.8l5.09 4a1.029 1.029 0 0 1 -.002 1.6z" fill="#4482c3"/><path d="m33.383 53.2 5.089-4a.956.956 0 0 1 1.528.8v1h17a2.006 2.006 0 0 1 2 2v2a2.006 2.006 0 0 1 -2 2h-17v1a.956.956 0 0 1 -1.53.8l-5.089-4a1.028 1.028 0 0 1 .002-1.6z" fill="#4482c3"/><path d="m7 26h-2a1 1 0 0 1 0-2h2a1 1 0 0 1 0 2z" fill="#fb7b76"/><path d="m23 26h-12a1 1 0 0 1 0-2h12a1 1 0 0 1 0 2z" fill="#90bae1"/><path d="m7 30h-2a1 1 0 0 1 0-2h2a1 1 0 0 1 0 2z" fill="#fb7b76"/><path d="m15 30h-4a1 1 0 0 1 0-2h4a1 1 0 0 1 0 2z" fill="#90bae1"/><path d="m7 34h-2a1 1 0 0 1 0-2h2a1 1 0 0 1 0 2z" fill="#fb7b76"/><path d="m17 34h-6a1 1 0 0 1 0-2h6a1 1 0 0 1 0 2z" fill="#90bae1"/><path d="m7 38h-2a1 1 0 0 1 0-2h2a1 1 0 0 1 0 2z" fill="#fb7b76"/><path d="m19 38h-8a1 1 0 0 1 0-2h8a1 1 0 0 1 0 2z" fill="#90bae1"/><path d="m7 42h-2a1 1 0 0 1 0-2h2a1 1 0 0 1 0 2z" fill="#fb7b76"/><path d="m13 42h-2a1 1 0 0 1 0-2h2a1 1 0 0 1 0 2z" fill="#90bae1"/><path d="m7 46h-2a1 1 0 0 1 0-2h2a1 1 0 0 1 0 2z" fill="#fb7b76"/><path d="m21 46h-10a1 1 0 0 1 0-2h10a1 1 0 0 1 0 2z" fill="#90bae1"/><path d="m7 50h-2a1 1 0 0 1 0-2h2a1 1 0 0 1 0 2z" fill="#fb7b76"/><path d="m17 50h-6a1 1 0 0 1 0-2h6a1 1 0 0 1 0 2z" fill="#90bae1"/><path d="m23 34h-2a1 1 0 0 1 0-2h2a1 1 0 0 1 0 2z" fill="#90bae1"/><path d="m23 42h-6a1 1 0 0 1 0-2h6a1 1 0 0 1 0 2z" fill="#90bae1"/></svg>