<svg id="ad9220bc-2d78-4978-89d6-7de092211536" height="512" viewBox="0 0 60 60" width="512" xmlns="http://www.w3.org/2000/svg" data-name="Icons"><path d="m51 43a1 1 0 0 1 -1-1v-3a1 1 0 0 0 -1-1h-38a1 1 0 0 0 -1 1v3a1 1 0 0 1 -2 0v-3a3 3 0 0 1 3-3h38a3 3 0 0 1 3 3v3a1 1 0 0 1 -1 1z" fill="#3f5c6c"/><path d="m30 43a1 1 0 0 1 -1-1v-9a1 1 0 0 1 2 0v9a1 1 0 0 1 -1 1z" fill="#3f5c6c"/><rect fill="#b0d3f0" height="17" rx="3" width="16" x="1" y="42"/><circle cx="5" cy="51" fill="#fb7b76" r="1"/><path d="m13 52h-4a1 1 0 0 1 0-2h4a1 1 0 0 1 0 2z" fill="#90bae1"/><circle cx="5" cy="55" fill="#fb7b76" r="1"/><path d="m11 56h-2a1 1 0 0 1 0-2h2a1 1 0 0 1 0 2z" fill="#90bae1"/><path d="m46 17a14.758 14.758 0 0 1 -.08 1.5 1 1 0 0 1 -.83.85l-2.38.39a13.071 13.071 0 0 1 -1.79 4.3l1.41 1.97a.99.99 0 0 1 -.01 1.19 14.891 14.891 0 0 1 -1.01 1.11c-.36.36-.73.69-1.11 1.01a.99.99 0 0 1 -1.19.01l-1.97-1.41a13.071 13.071 0 0 1 -4.3 1.79l-.39 2.38a.986.986 0 0 1 -.85.83 14.1 14.1 0 0 1 -3 0 .986.986 0 0 1 -.85-.83l-.39-2.38a13.071 13.071 0 0 1 -4.3-1.79l-1.97 1.41a.99.99 0 0 1 -1.19-.01c-.38-.32-.75-.65-1.11-1.01a14.891 14.891 0 0 1 -1.01-1.11.99.99 0 0 1 -.01-1.19l1.41-1.97a13.071 13.071 0 0 1 -1.79-4.3l-2.38-.39a1 1 0 0 1 -.83-.85 14.1 14.1 0 0 1 0-3 .986.986 0 0 1 .83-.85l2.38-.39a13.071 13.071 0 0 1 1.79-4.3l-1.41-1.97a.99.99 0 0 1 .01-1.19 13.141 13.141 0 0 1 1.01-1.11 14.891 14.891 0 0 1 1.11-1.01.99.99 0 0 1 1.19-.01l1.97 1.41a13.071 13.071 0 0 1 4.3-1.79l.39-2.38a.986.986 0 0 1 .85-.83 14.1 14.1 0 0 1 3 0 .986.986 0 0 1 .85.83l.39 2.38a13.071 13.071 0 0 1 4.3 1.79l1.97-1.41a.99.99 0 0 1 1.19.01 14.891 14.891 0 0 1 1.11 1.01 13.141 13.141 0 0 1 1.01 1.11.99.99 0 0 1 .01 1.19l-1.41 1.97a13.071 13.071 0 0 1 1.79 4.3l2.38.39a.986.986 0 0 1 .83.85 14.758 14.758 0 0 1 .08 1.5z" fill="#95a5a5"/><circle cx="30" cy="17" fill="#7f8c8d" r="9"/><circle cx="30" cy="17" fill="#56595e" r="5"/><path d="m17 45v2h-16v-2a3 3 0 0 1 3-3h10a3 3 0 0 1 3 3z" fill="#4482c3"/><rect fill="#b0d3f0" height="17" rx="3" width="16" x="22" y="42"/><circle cx="26" cy="51" fill="#fb7b76" r="1"/><path d="m34 52h-4a1 1 0 0 1 0-2h4a1 1 0 0 1 0 2z" fill="#90bae1"/><circle cx="26" cy="55" fill="#fb7b76" r="1"/><path d="m32 56h-2a1 1 0 0 1 0-2h2a1 1 0 0 1 0 2z" fill="#90bae1"/><path d="m38 45v2h-16v-2a3 3 0 0 1 3-3h10a3 3 0 0 1 3 3z" fill="#4482c3"/><rect fill="#b0d3f0" height="17" rx="3" width="16" x="43" y="42"/><circle cx="47" cy="51" fill="#fb7b76" r="1"/><path d="m55 52h-4a1 1 0 0 1 0-2h4a1 1 0 0 1 0 2z" fill="#90bae1"/><circle cx="47" cy="55" fill="#fb7b76" r="1"/><path d="m53 56h-2a1 1 0 0 1 0-2h2a1 1 0 0 1 0 2z" fill="#90bae1"/><path d="m59 45v2h-16v-2a3 3 0 0 1 3-3h10a3 3 0 0 1 3 3z" fill="#4482c3"/></svg>