<svg id="Icons" height="512" viewBox="0 0 60 60" width="512" xmlns="http://www.w3.org/2000/svg"><path d="m9 9a4 4 0 0 0 -4 4v38h50v-38a4 4 0 0 0 -4-4z" fill="#3b97d3"/><path d="m9 51v-45a5 5 0 0 1 5-5h23.34a4 4 0 0 1 2.83 1.17l9.66 9.66a4 4 0 0 1 1.17 2.83v36.34z" fill="#9fc9d3"/><rect fill="#3b97d3" height="6" rx="1" width="6" x="14" y="6"/><path d="m26 8h-2a1 1 0 0 1 0-2h2a1 1 0 0 1 0 2z" fill="#3f5c6c"/><path d="m35 8h-5a1 1 0 0 1 0-2h5a1 1 0 0 1 0 2z" fill="#3f5c6c"/><path d="m31 12h-7a1 1 0 0 1 0-2h7a1 1 0 0 1 0 2z" fill="#3f5c6c"/><path d="m5 51h50a0 0 0 0 1 0 0v4a4 4 0 0 1 -4 4h-42a4 4 0 0 1 -4-4v-4a0 0 0 0 1 0 0z" fill="#35495e"/><path d="m32 56h-4a1 1 0 0 1 0-2h4a1 1 0 0 1 0 2z" fill="#2c3e50"/><g fill="#3f5c6c"><path d="m23 22h-9a1 1 0 0 1 0-2h9a1 1 0 0 1 0 2z"/><path d="m46 22h-19a1 1 0 0 1 0-2h19a1 1 0 0 1 0 2z"/><path d="m36 26h-22a1 1 0 0 1 0-2h22a1 1 0 0 1 0 2z"/><path d="m46 30h-32a1 1 0 0 1 0-2h32a1 1 0 0 1 0 2z"/><path d="m26 36h-12a1 1 0 0 1 0-2h12a1 1 0 0 1 0 2z"/><path d="m46 40h-32a1 1 0 0 1 0-2h32a1 1 0 0 1 0 2z"/><path d="m31 44h-17a1 1 0 0 1 0-2h17a1 1 0 0 1 0 2z"/><path d="m46 44h-11a1 1 0 0 1 0-2h11a1 1 0 0 1 0 2z"/></g><path d="m50.64 13h-8.64a3 3 0 0 1 -3-3v-8.64a4.089 4.089 0 0 1 1.17.81l9.66 9.66a4.089 4.089 0 0 1 .81 1.17z" fill="#84b5cb"/></svg>