<svg height="512" viewBox="0 0 58 58" width="512" xmlns="http://www.w3.org/2000/svg"><g id="Page-1" fill="none" fill-rule="evenodd"><g id="035---Privacy-Policy" transform="translate(0 -1)"><path id="Path" d="m58 32.35c-.16 3.56-1.67 20.53-15.78 26.6-.1383066.0700326-.3016934.0700326-.44 0-2.7132522-1.1563337-5.1705514-2.8387169-7.23-4.95-2.9772647-3.1246588-5.2035902-6.8864989-6.51-11-1.1557562-3.4421291-1.8419423-7.0244244-2.04-10.65-.0090672-.1628208.0552522-.3211466.1753013-.4315144.1200491-.1103677.2832123-.1611791.4446987-.1384856 3.8871846.6143529 7.8691202-.0119796 11.38-1.79 1.3567606-.7075983 2.5732826-1.6564177 3.59-2.8.1029537-.1190749.2525888-.1875088.41-.1875088s.3070463.0684339.41.1875088c1.31 1.51 5.81 5.69 14.97 4.59.1614864-.0226935.3246496.0281179.4446987.1384856.1200491.1103678.1843685.2686936.1753013.4315144z" fill="#bcc2c6"/><path id="Path" d="m42 54.631c-8.088-4.277-10.734-13.308-11.6-18.684 4.159966-.0351702 8.2089244-1.346195 11.6-3.756 3.3909001 2.4101544 7.4399714 3.7212157 11.6 3.756-.864 5.376-3.508 14.407-11.6 18.684z" fill="#4fb96f"/><path id="Shape" d="m42 55.631c-.162788-.0000793-.3230954-.0398987-.467-.116-8.556-4.524-11.266-14.1-12.12-19.41-.0455733-.2839658.0333201-.5738059.2165314-.7954974.1832113-.2216914.4530017-.3537696.7404686-.3625026 3.9568578-.0344894 7.8086234-1.2777035 11.039-3.563.3518388-.2577713.8301612-.2577713 1.182 0 3.2304537 2.285895 7.082728 3.5291607 11.04 3.563.2872899.0090139.5568101.1412119.7398005.3628677.1829904.2216557.261755.511334.2161995.7951323-.852 5.307-3.56 14.885-12.12 19.41-.1439046.0761013-.304212.1159207-.467.116zm-10.418-18.746c.957 4.959 3.529 12.687 10.418 16.605 6.894-3.919 9.464-11.646 10.419-16.605-3.7165694-.2278133-7.3087027-1.4248463-10.419-3.472-3.1100688 2.046862-6.7018014 3.2438764-10.418 3.472z" fill="#fff" fill-rule="nonzero"/><path id="Path" d="m38 6v23.99c-3.5108798 1.7780204-7.4928154 2.4043529-11.38 1.79-.1614864-.0226935-.3246496.0281179-.4446987.1384856-.1200491.1103678-.1843685.2686936-.1753013.4315144.1980577 3.6255756.8842438 7.2078709 2.04 10.65h-7.04c-.5522847 0-1 .4477153-1 1v4.79c.0421177 2.6276897-1.902135 4.8650892-4.51 5.19-.1594284.0166422-.3197398.0233218-.48.02h-.01c-2.7614237 0-5-2.2385763-5-5v-42.79c.0421177-2.62768969-1.90213498-4.86508915-4.51-5.19-.15942839-.0166422-.31973977-.02332184-.48-.02h27.99c2.7614237 0 5 2.23857625 5 5z" fill="#f4eec9"/><path id="Path" d="m10 6.21v21.79h-9c-.55228475 0-1-.4477153-1-1v-21c0-2.76142375 2.23857625-5 5-5h.01c.16026023-.00332184.32057161.0033578.48.02 2.60786502.32491085 4.5521177 2.56231031 4.51 5.19z" fill="#cab191"/><path id="Path" d="m34.55 54h-19.54c.1602602.0033218.3205716-.0033578.48-.02 2.607865-.3249108 4.5521177-2.5623103 4.51-5.19v-4.79c0-.5522847.4477153-1 1-1h7.04c1.3064098 4.1135011 3.5327353 7.8753412 6.51 11z" fill="#cab191"/><g fill="#b08f46"><path id="Path" d="m15 8h18c.5522847 0 1-.44771525 1-1s-.4477153-1-1-1h-18c-.5522847 0-1 .44771525-1 1s.4477153 1 1 1z"/><path id="Path" d="m33 12h-18c-.5522847 0-1 .4477153-1 1s.4477153 1 1 1h18c.5522847 0 1-.4477153 1-1s-.4477153-1-1-1z"/><path id="Path" d="m33 18h-18c-.5522847 0-1 .4477153-1 1s.4477153 1 1 1h18c.5522847 0 1-.4477153 1-1s-.4477153-1-1-1z"/><path id="Path" d="m33 24h-18c-.5522847 0-1 .4477153-1 1s.4477153 1 1 1h18c.5522847 0 1-.4477153 1-1s-.4477153-1-1-1z"/><path id="Path" d="m22 30h-7c-.5522847 0-1 .4477153-1 1s.4477153 1 1 1h7c.5522847 0 1-.4477153 1-1s-.4477153-1-1-1z"/><path id="Path" d="m22 36h-7c-.5522847 0-1 .4477153-1 1s.4477153 1 1 1h7c.5522847 0 1-.4477153 1-1s-.4477153-1-1-1z"/></g></g></g></svg>