<?xml version="1.0" encoding="UTF-8"?><svg id="Layer_2" xmlns="http://www.w3.org/2000/svg" viewBox="0 0 173.45 91.45"><defs><style>.cls-1{fill:#fff;}.cls-2{fill:#939598;}.cls-3{fill:#145a92;}</style></defs><g id="Layer_1-2"><path class="cls-3" d="M10.7,86.81c-.55.17-1.23.32-2.06.46-.83.14-1.69.21-2.6.21s-1.78-.14-2.52-.43c-.74-.29-1.38-.7-1.9-1.24-.52-.54-.92-1.19-1.21-1.95-.28-.76-.42-1.62-.42-2.58s.12-1.79.35-2.56c.23-.77.58-1.42,1.03-1.97.46-.54,1.01-.96,1.66-1.26s1.4-.44,2.25-.44c.58,0,1.08.07,1.52.2.44.14.82.29,1.14.45v-5.7l2.75-.46v17.27ZM2.82,81.2c0,1.21.29,2.16.86,2.85.58.69,1.37,1.03,2.39,1.03.44,0,.81-.02,1.12-.06.31-.04.56-.08.76-.12v-6.82c-.24-.17-.56-.32-.97-.47-.4-.14-.83-.21-1.28-.21-1,0-1.73.34-2.19,1.02s-.69,1.61-.69,2.77Z"/><path class="cls-3" d="M17.27,71.82c0,.51-.17.92-.5,1.23s-.73.45-1.18.45-.87-.15-1.2-.45c-.33-.3-.5-.71-.5-1.23s.17-.95.5-1.25c.33-.3.73-.46,1.2-.46s.85.15,1.18.46.5.72.5,1.25ZM16.97,87.18h-2.75v-11.88h2.75v11.88Z"/><path class="cls-3" d="M24.74,78.93l2.53-3.64h2.89l-3.99,5.69c.83,1.05,1.63,2.11,2.4,3.18.76,1.07,1.39,2.07,1.89,3.02h-2.99c-.14-.28-.32-.58-.54-.92s-.45-.68-.7-1.04c-.25-.36-.51-.72-.78-1.07-.27-.35-.53-.69-.79-1-.53.62-1.05,1.3-1.56,2.05s-.93,1.41-1.27,1.99h-2.8c.22-.46.5-.94.83-1.44.33-.5.68-1.02,1.05-1.55.37-.53.76-1.05,1.16-1.58.4-.53.79-1.03,1.18-1.5l-4.03-5.81h3.02l2.52,3.64Z"/><path class="cls-3" d="M42.83,81.23c0,.94-.14,1.8-.41,2.57s-.66,1.43-1.16,1.98c-.5.55-1.1.97-1.81,1.27-.7.3-1.48.45-2.33.45s-1.62-.15-2.32-.45c-.7-.3-1.29-.73-1.79-1.27-.5-.54-.89-1.2-1.17-1.98s-.42-1.63-.42-2.57.14-1.79.42-2.56.67-1.42,1.18-1.97,1.11-.97,1.81-1.26c.7-.29,1.46-.44,2.29-.44s1.6.15,2.31.44c.7.3,1.31.72,1.81,1.26s.89,1.2,1.17,1.97.42,1.62.42,2.56ZM40.02,81.23c0-1.18-.25-2.12-.76-2.81s-1.22-1.03-2.12-1.03-1.62.34-2.12,1.03c-.51.69-.76,1.62-.76,2.81s.25,2.14.76,2.84c.51.7,1.22,1.05,2.12,1.05s1.62-.35,2.12-1.05c.51-.7.76-1.64.76-2.84Z"/><path class="cls-3" d="M45.67,75.68c.53-.15,1.22-.3,2.07-.43s1.79-.2,2.82-.2c.97,0,1.78.13,2.43.4.65.27,1.17.64,1.56,1.11.39.48.66,1.05.82,1.73.16.67.24,1.41.24,2.21v6.68h-2.75v-6.25c0-.64-.04-1.18-.12-1.62-.08-.45-.22-.81-.41-1.09-.19-.28-.45-.49-.77-.61-.33-.13-.72-.19-1.19-.19-.35,0-.71.02-1.09.07s-.66.08-.84.11v9.59h-2.75v-11.5Z"/><path class="cls-2" d="M59.17,75.84c.44-.12,1.01-.26,1.72-.41s1.62-.23,2.74-.23c1.48,0,2.56.43,3.23,1.29.08-.06.22-.16.44-.31.22-.14.5-.29.83-.44s.72-.28,1.17-.39c.45-.11.94-.16,1.49-.16.89,0,1.62.13,2.17.4.55.26.98.64,1.28,1.11.3.48.51,1.05.61,1.71.11.67.16,1.39.16,2.18v6.57h-1.48v-6.09c0-.77-.03-1.44-.1-2.01s-.2-1.04-.41-1.41c-.2-.37-.5-.65-.87-.84-.38-.19-.87-.28-1.48-.28-.45,0-.87.04-1.24.12s-.69.19-.97.31-.5.24-.67.36c-.17.12-.3.21-.38.27.14.39.24.84.31,1.33s.1,1.01.1,1.56v6.68h-1.48v-6.09c0-.77-.03-1.44-.1-2.01-.07-.57-.21-1.04-.42-1.41-.21-.37-.51-.65-.9-.84-.39-.19-.9-.28-1.53-.28-.71,0-1.31.04-1.81.11s-.81.14-.94.2v10.32h-1.48v-11.34Z"/><path class="cls-2" d="M88.8,81.32c0,.92-.13,1.76-.4,2.52-.26.76-.64,1.4-1.11,1.93-.48.53-1.04.94-1.69,1.24-.65.3-1.37.44-2.16.44s-1.51-.15-2.16-.44c-.65-.29-1.22-.71-1.69-1.24-.48-.53-.85-1.17-1.11-1.93-.27-.76-.4-1.6-.4-2.52s.13-1.77.4-2.52c.26-.76.64-1.41,1.11-1.94.48-.54,1.04-.96,1.69-1.25.65-.3,1.37-.44,2.16-.44s1.51.15,2.16.44c.65.29,1.22.71,1.69,1.25.48.54.85,1.19,1.11,1.94.27.76.4,1.6.4,2.52ZM87.23,81.32c0-1.47-.34-2.64-1.02-3.51-.68-.87-1.61-1.31-2.77-1.31s-2.09.44-2.77,1.31c-.68.87-1.02,2.04-1.02,3.51s.34,2.64,1.02,3.5c.68.86,1.61,1.3,2.77,1.3s2.09-.43,2.77-1.3c.68-.86,1.02-2.03,1.02-3.5Z"/><path class="cls-2" d="M93.48,76.14c.26-.2.67-.4,1.24-.62.57-.22,1.24-.33,2.01-.33.85,0,1.6.15,2.26.45.66.3,1.22.73,1.67,1.27.45.54.8,1.19,1.03,1.94.24.75.35,1.57.35,2.47,0,.95-.14,1.81-.42,2.57-.28.76-.67,1.4-1.18,1.93-.51.53-1.11.94-1.82,1.22-.7.28-1.49.42-2.35.42-1.05,0-1.91-.07-2.59-.2-.68-.14-1.24-.28-1.68-.43v-17l1.48-.27v6.59ZM93.48,85.79c.23.08.56.15,1.01.21.45.07,1.03.1,1.76.1,1.27,0,2.3-.41,3.07-1.24.77-.83,1.16-2.01,1.16-3.56,0-.65-.07-1.27-.2-1.85s-.36-1.09-.66-1.52-.7-.78-1.19-1.03c-.49-.26-1.1-.39-1.83-.39-.35,0-.68.03-1,.1-.32.07-.61.16-.89.26-.27.11-.51.22-.72.34-.2.12-.38.23-.51.34v8.23Z"/><path class="cls-2" d="M107.07,71.89c0,.35-.11.62-.32.83-.21.21-.47.31-.77.31s-.56-.1-.77-.31c-.21-.2-.32-.48-.32-.83s.11-.62.32-.83c.21-.21.47-.31.77-.31s.56.1.77.31c.21.2.32.48.32.83ZM106.73,87.18h-1.48v-11.75h1.48v11.75Z"/><path class="cls-2" d="M113.62,87.38c-.5-.01-.94-.08-1.31-.19-.37-.11-.68-.29-.93-.52-.25-.24-.44-.54-.57-.91-.13-.37-.19-.84-.19-1.4v-14.54l1.48-.27v14.77c0,.36.03.66.1.88s.17.39.31.52c.14.13.31.22.53.28s.48.11.78.16l-.21,1.23Z"/><path class="cls-2" d="M118.25,71.89c0,.35-.11.62-.32.83-.21.21-.47.31-.77.31s-.56-.1-.77-.31c-.21-.2-.32-.48-.32-.83s.11-.62.32-.83c.21-.21.47-.31.77-.31s.56.1.77.31c.21.2.32.48.32.83ZM117.91,87.18h-1.48v-11.75h1.48v11.75Z"/><path class="cls-2" d="M123.21,75.43h4.68v1.25h-4.68v6.25c0,.67.06,1.21.17,1.62.11.42.28.74.49.96.21.23.47.38.77.46.3.08.64.11,1,.11.62,0,1.12-.07,1.5-.22s.67-.28.89-.4l.36,1.23c-.21.14-.58.29-1.11.47-.53.17-1.11.26-1.73.26-.73,0-1.34-.09-1.83-.28s-.89-.48-1.18-.86c-.29-.39-.5-.87-.62-1.44-.12-.58-.18-1.26-.18-2.04v-10.82l1.48-.27v3.73Z"/><path class="cls-2" d="M133.82,87.43c-.49-.93-.97-1.89-1.44-2.89s-.9-2.01-1.3-3.03c-.4-1.02-.77-2.04-1.11-3.07-.33-1.02-.62-2.03-.86-3.01h1.57c.17.73.38,1.51.64,2.35.26.84.55,1.71.87,2.6.33.89.68,1.81,1.08,2.75.39.94.82,1.86,1.29,2.77.34-.94.64-1.82.9-2.65.26-.83.5-1.66.72-2.49s.44-1.67.64-2.53c.21-.86.42-1.8.63-2.81h1.48c-.49,2.2-1.05,4.34-1.66,6.41-.62,2.08-1.29,3.98-2.02,5.7-.29.68-.58,1.27-.89,1.76-.3.49-.64.9-1.02,1.22-.37.32-.81.55-1.3.7-.5.15-1.08.23-1.75.23-.38,0-.73-.05-1.04-.14s-.51-.16-.58-.21l.3-1.23c.06.04.23.11.51.19.28.08.57.12.88.12.42,0,.81-.05,1.15-.14s.65-.25.92-.47.52-.5.74-.85c.22-.35.43-.79.64-1.32Z"/><path class="cls-2" d="M142.86,85.02c.01.14.02.26.02.36v.27c0,.94-.13,1.84-.4,2.7-.27.86-.63,1.67-1.1,2.43l-1.09-.5c.35-.67.59-1.37.74-2.1.14-.73.22-1.5.22-2.28,0-.18,0-.33-.01-.46,0-.12-.02-.26-.03-.43h1.66Z"/><path class="cls-2" d="M157.28,86.29v.89h-5.97v-10.5h1.03v9.6h4.94Z"/><path class="cls-2" d="M164.89,86.29v.89h-5.97v-10.5h1.03v9.6h4.94Z"/><path class="cls-2" d="M170.37,87.41c-.68,0-1.31-.12-1.89-.36-.58-.24-1.08-.6-1.51-1.06s-.77-1.04-1.01-1.72c-.25-.68-.37-1.46-.37-2.34s.13-1.66.4-2.34.62-1.26,1.07-1.72c.44-.46.96-.82,1.55-1.05.58-.24,1.2-.36,1.83-.36.39,0,.75.03,1.08.08s.61.11.85.19c.24.08.45.15.62.23s.3.14.39.21l-.33.89c-.25-.15-.57-.3-.96-.45s-.87-.22-1.45-.22c-.66,0-1.23.11-1.72.33-.49.22-.9.54-1.23.94-.33.4-.58.88-.75,1.44-.17.56-.25,1.17-.25,1.85s.08,1.33.25,1.89c.17.56.41,1.04.73,1.43s.72.7,1.19.91c.47.21,1.01.32,1.61.32.67,0,1.22-.06,1.67-.19.45-.13.79-.26,1.02-.39l.29.88c-.07.05-.19.11-.36.17-.17.07-.39.13-.65.21s-.57.13-.91.17c-.34.04-.73.07-1.15.07Z"/><path class="cls-3" d="M110.53,30.71c0-16.96-13.75-30.71-30.71-30.71s-30.71,13.75-30.71,30.71,13.75,30.71,30.71,30.71,30.71-13.75,30.71-30.71Z"/><path class="cls-1" d="M96.49,26.11h-15.87c-2.4,0-4.36,1.95-4.36,4.36v8.46c0,.4-.33.73-.73.73h-12.39c-.4,0-.73-.33-.73-.73v-8.46c0-.4.34-.73.73-.73h7.94c2.4,0,4.36-1.96,4.36-4.36v-8.75c0-1-.81-1.81-1.81-1.81h-1.81v10.56c0,.4-.34.73-.73.73h-7.94c-2.4,0-4.36,1.95-4.36,4.36v8.46c0,2.41,1.95,4.36,4.36,4.36h12.39c2.4,0,4.36-1.96,4.36-4.36v-8.46c0-.4.33-.73.73-.73h5.76v11.74c0,1,.81,1.81,1.81,1.81h1.81v-13.56h6.49c.4,0,.74.34.74.73v11.01c0,1,.81,1.81,1.81,1.81h1.81v-12.83c0-2.41-1.95-4.36-4.36-4.36Z"/></g></svg>